<svg xmlns="http://www.w3.org/2000/svg" viewBox="0 0 24 24" fill="none">
  <path fill="#4285F4" d="M23.49 12.27c0-.79-.07-1.54-.2-2.27H12v4.3h6.46a5.53 5.53 0 0 1-2.4 3.63v2.82h3.64c2.14-1.97 3.39-4.88 3.39-8.48Z"/>
  <path fill="#34A853" d="M12 24c3.24 0 5.95-1.07 7.93-2.91l-3.64-2.82c-1.01.68-2.31 1.09-4.29 1.09-3.15 0-5.82-2.13-6.78-4.99H1.46v2.91A12 12 0 0 0 12 24Z"/>
  <path fill="#FBBC05" d="M5.22 14.37A7.2 7.2 0 0 1 4.84 12c0-.82.14-1.61.38-2.37V6.72H1.46A12 12 0 0 0 0 12c0 1.93.46 3.75 1.46 5.28l3.76-2.91Z"/>
  <path fill="#EA4335" d="M12 4.64c1.8 0 3.41.62 4.68 1.82l3.51-3.51C17.94.86 15.23 0 12 0A12 12 0 0 0 1.46 6.72l3.76 2.91c.96-2.86 3.63-4.99 6.78-4.99Z"/>
</svg>
